<?xml version="1.0" standalone="no"?>
<!DOCTYPE svg PUBLIC "-//W3C//DTD SVG 20010904//EN"
 "http://www.w3.org/TR/2001/REC-SVG-20010904/DTD/svg10.dtd">
<svg version="1.0" xmlns="http://www.w3.org/2000/svg"
 width="400.000000pt" height="400.000000pt" viewBox="0 0 400.000000 400.000000"
 preserveAspectRatio="xMidYMid meet">

<g transform="translate(0.000000,400.000000) scale(0.100000,-0.100000)"
fill="#000000" stroke="none">
<path d="M588 2828 c-20 -62 -73 -226 -117 -365 -45 -138 -81 -256 -81 -262 0
-7 26 -11 69 -11 l70 0 32 100 32 100 168 0 168 0 32 -100 33 -100 74 0 c65 0
73 2 68 18 -3 9 -59 177 -124 372 l-119 355 -134 3 -135 3 -36 -113z m236
-123 c31 -94 56 -176 56 -183 0 -9 -31 -12 -120 -12 -83 0 -120 4 -120 11 0
26 114 369 121 362 3 -5 32 -85 63 -178z"/>
<path d="M1210 2565 l0 -375 65 0 65 0 0 375 0 375 -65 0 -65 0 0 -375z"/>
<path d="M1500 2840 l0 -100 -40 0 -40 0 0 -50 c0 -38 4 -50 15 -50 9 0 27
-11 40 -25 24 -23 25 -28 25 -170 0 -166 10 -203 62 -235 25 -15 50 -20 101
-20 l68 0 -3 58 -3 57 -35 3 c-54 5 -60 21 -60 152 0 133 -4 140 -81 164 -43
14 -42 14 69 15 l112 1 0 50 0 50 -50 0 -50 0 0 100 0 100 -65 0 -65 0 0 -100z"/>
<path d="M1870 2270 l0 -80 910 0 910 0 0 80 0 80 -910 0 -910 0 0 -80z"/>
<path d="M612 1925 c-152 -43 -222 -175 -161 -302 33 -67 89 -100 235 -135
151 -37 188 -58 192 -112 11 -125 -236 -152 -308 -33 -11 18 -20 40 -20 50 0
14 -10 17 -70 17 -78 0 -79 -1 -58 -74 18 -61 108 -147 177 -169 150 -48 333
3 398 111 30 49 31 137 3 191 -39 78 -106 115 -270 152 -142 32 -186 72 -150
140 27 50 143 75 214 45 37 -16 76 -60 76 -87 0 -17 8 -19 70 -19 l70 0 0 30
c0 39 -29 97 -67 132 -69 66 -219 94 -331 63z"/>
<path d="M1720 1545 l0 -375 65 0 65 0 0 180 c0 193 6 222 52 254 27 19 77 21
113 4 49 -22 55 -50 55 -253 l0 -185 71 0 70 0 -3 213 c-3 191 -5 215 -23 246
-33 56 -87 93 -144 99 -88 8 -132 -24 -172 -126 l-18 -47 -1 183 0 182 -65 0
-65 0 0 -375z"/>
<path d="M3560 1561 c0 -198 -3 -366 -6 -375 -5 -14 4 -16 65 -16 l71 0 0 375
0 375 -65 0 -65 0 0 -359z"/>
<path d="M1318 1729 c-59 -9 -107 -38 -152 -91 -50 -58 -69 -123 -64 -217 9
-162 110 -262 263 -262 110 0 203 57 241 147 25 59 21 64 -49 64 -62 0 -63 0
-100 -45 -91 -109 -217 -40 -217 119 0 142 115 222 201 140 16 -15 31 -36 35
-46 4 -15 17 -18 80 -18 74 0 75 1 68 23 -41 133 -165 208 -306 186z"/>
<path d="M2519 1729 c-217 -32 -301 -337 -138 -500 95 -95 276 -93 377 4 53
50 75 102 80 188 6 97 -16 166 -70 225 -63 68 -151 97 -249 83z m121 -137 c14
-10 35 -38 48 -63 47 -89 12 -211 -70 -243 -99 -40 -188 35 -188 159 0 132
117 214 210 147z"/>
<path d="M3136 1729 c-141 -22 -241 -168 -221 -322 21 -155 121 -247 269 -247
164 0 276 116 276 286 0 184 -145 311 -324 283z m124 -137 c44 -33 64 -79 64
-147 0 -102 -55 -170 -139 -170 -82 0 -135 65 -135 165 0 139 115 222 210 152z"/>
</g>
</svg>
